<?xml version="1.0" encoding="UTF-8" standalone="no"?>
<svg
   xmlns:dc="http://purl.org/dc/elements/1.1/"
   xmlns:cc="http://creativecommons.org/ns#"
   xmlns:rdf="http://www.w3.org/1999/02/22-rdf-syntax-ns#"
   xmlns:svg="http://www.w3.org/2000/svg"
   xmlns="http://www.w3.org/2000/svg"
   xmlns:sodipodi="http://sodipodi.sourceforge.net/DTD/sodipodi-0.dtd"
   xmlns:inkscape="http://www.inkscape.org/namespaces/inkscape"
   id="Layer_1"
   data-name="Layer 1"
   viewBox="0 0 145.72593 23.102059"
   version="1.1"
   sodipodi:docname="patolink-logo-2017-gray.svg"
 
  
   inkscape:version="0.92.0 r15299">
  <metadata
     id="metadata3740">
    <rdf:RDF>
      <cc:Work
         rdf:about="">
        <dc:format>image/svg+xml</dc:format>
        <dc:type
           rdf:resource="http://purl.org/dc/dcmitype/StillImage" />
        <dc:title>Patolink®</dc:title>
      </cc:Work>
    </rdf:RDF>
  </metadata>
  <sodipodi:namedview
     pagecolor="#ffffff"
     bordercolor="#666666"
     borderopacity="1"
     objecttolerance="10"
     gridtolerance="10"
     guidetolerance="10"
     inkscape:pageopacity="0"
     inkscape:pageshadow="2"
     inkscape:window-width="1920"
     inkscape:window-height="976"
     id="namedview3738"
     showgrid="false"
     inkscape:zoom="8.7532682"
     inkscape:cx="62.525827"
     inkscape:cy="0.8783932"
     inkscape:window-x="-8"
     inkscape:window-y="-8"
     inkscape:window-maximized="1"
     inkscape:current-layer="Layer_1" />
  <defs
     id="defs3715">
    <style
       id="style3713">.cls-1{fill:#54616c;}</style>
  </defs>
  <title
     id="title3717">Patolink®</title>
  <path
     class="cls-1"
     d="m 5.7585824,13.890149 c -0.96973,0 -2.24268,-0.09131 -3.03027,-0.15186 v 8.51514 a 0.57659,0.57659 0 0 1 -0.5459,0.60645 H 0.54617238 A 0.57764,0.57764 0 0 1 7.6237527e-4,22.253429 V 1.1318491 A 0.74167,0.74167 0 0 1 0.72781238,0.37452905 48.53085,48.53085 0 0 1 5.7585724,0.13184905 c 4.9091796,0 8.4848596,1.69727005 8.4848596,6.57617005 v 0.394 c 10e-6,5.0605699 -3.57567,6.7881299 -8.4848496,6.7881299 z M 11.486122,6.7080191 c 0,-3.061 -1.8183596,-4.24268 -5.7275396,-4.24268 -0.93945,0 -2.30322,0.06055 -3.03027,0.12109 v 8.8789099 c 0.69678,0.03076 2.24219,0.12158 3.03027,0.12158 4.15137,0 5.7275396,-1.3335 5.7275396,-4.4848599 z"
     id="path3719"
     inkscape:connector-curvature="0"
     style="fill:#54616c" />
  <path
     class="cls-1"
     d="m 32.121862,22.859869 h -1.78809 a 0.54837,0.54837 0 0 1 -0.51514,-0.4541 l -1.96968,-6.9707 h -7.84867 l -1.93945,6.9707 a 0.61188,0.61188 0 0 1 -0.54541,0.4541 h -1.78809 a 0.48608,0.48608 0 0 1 -0.51514,-0.48437 0.51748,0.51748 0 0 1 0.03027,-0.21289 l 5.606,-19.7275399 a 2.98165,2.98165 0 0 1 3.09131,-2.30322005 2.94169,2.94169 0 0 1 3.06055,2.27295005 l 5.6064,19.7577899 a 0.51748,0.51748 0 0 1 0.03027,0.21289 0.46975,0.46975 0 0 1 -0.51513,0.48439 z M 24.515412,3.0712991 c -0.09082,-0.3335 -0.27295,-0.54541 -0.57568,-0.54541 -0.3335,0 -0.51514,0.21191 -0.606,0.54541 l -2.75778,9.9702099 h 6.69727 z"
     id="path3721"
     inkscape:connector-curvature="0"
     style="fill:#54616c" />
  <path
     class="cls-1"
     d="m 47.030062,2.7075291 h -5.90918 V 22.253429 a 0.57619,0.57619 0 0 1 -0.54541,0.60645 h -1.66652 a 0.57764,0.57764 0 0 1 -0.54541,-0.60645 V 2.7075291 h -5.90965 c -0.333,0 -0.606,-0.15137 -0.606,-0.48486 V 0.88966905 a 0.5778,0.5778 0 0 1 0.606,-0.54541 h 14.57617 a 0.53339,0.53339 0 0 1 0.57617,0.54541 V 2.2226691 c 0,0.30322 -0.24267,0.48486 -0.57617,0.48486 z"
     id="path3723"
     inkscape:connector-curvature="0"
     style="fill:#54616c" />
  <path
     class="cls-1"
     d="m 57.332792,23.071789 c -4.75781,0 -8.2124,-2.78809 -8.2124,-9.51514 V 9.6474691 c 0,-6.72754 3.45459,-9.51562005 8.2124,-9.51562005 4.75781,0 8.18164,2.78809005 8.18164,9.51563005 v 3.9091799 c 1e-5,6.72704 -3.42382,9.51513 -8.18164,9.51513 z m 5.39356,-13.4243199 c 0,-5.09131 -2.06006,-7.03076 -5.39355,-7.03076 -3.30322,0 -5.4248,1.93945 -5.4248,7.03076 v 3.9091799 c 0,5.09131 2.09131,7.03076 5.4248,7.03076 3.30273,0 5.39355,-1.93945 5.39355,-7.03076 z"
     id="path3725"
     inkscape:connector-curvature="0"
     style="fill:#54616c" />
  <path
     class="cls-1"
     d="m 82.362582,22.678229 a 32.924,32.924 0 0 1 -5.15137,0.42383 c -3.94043,0 -7.001,-1.06055 -7.001,-6.21191 V 0.95020905 a 0.60819,0.60819 0 0 1 0.60645,-0.606 h 3 a 0.60819,0.60819 0 0 1 0.60645,0.606 V 16.890149 c 0,2 0.60547,2.60645 2.36328,2.60645 h 5.57617 a 0.60725,0.60725 0 0 1 0.60547,0.60547 v 1.93945 c 2e-5,0.4248 -0.15135,0.54589 -0.60545,0.63671 z"
     id="path3727"
     inkscape:connector-curvature="0"
     style="fill:#54616c" />
  <path
     class="cls-1"
     d="m 90.058872,22.859869 h -3 a 0.60829,0.60829 0 0 1 -0.60645,-0.60645 V 0.91992905 a 0.583,0.583 0 0 1 0.60645,-0.57568 h 3 a 0.583,0.583 0 0 1 0.60645,0.57568 V 22.253429 a 0.60829,0.60829 0 0 1 -0.60645,0.60644 z"
     id="path3729"
     inkscape:connector-curvature="0"
     style="fill:#54616c" />
  <path
     class="cls-1"
     d="m 111.63406,22.859869 h -3.06055 a 1.62819,1.62819 0 0 1 -1.84863,-1.09082 L 99.997342,7.0107491 c -0.0908,-0.18164 -0.18262,-0.24219 -0.27344,-0.24219 -0.0908,0 -0.15137,0.06055 -0.15137,0.24219 V 22.253429 a 0.5823,0.5823 0 0 1 -0.5752,0.60645 h -2.57617 a 0.60829,0.60829 0 0 1 -0.60645,-0.60645 V 1.5561591 a 1.21606,1.21606 0 0 1 1.21289,-1.21191005 h 3.272458 c 0.63672,0 0.96973,0.18164 1.333,0.96973005 l 7.06152,15.5761699 c 0.0605,0.15137 0.15137,0.24219 0.24219,0.24219 0.0606,0 0.15137,-0.09082 0.15137,-0.27246 V 0.91992905 a 0.557,0.557 0 0 1 0.57617,-0.57568 h 2.60547 a 0.557,0.557 0 0 1 0.57617,0.57568 V 21.647929 a 1.21617,1.21617 0 0 1 -1.21189,1.21194 z"
     id="path3731"
     inkscape:connector-curvature="0"
     style="fill:#54616c" />
  <path
     class="cls-1"
     d="m 133.30008,22.859869 h -4.06055 a 0.69572,0.69572 0 0 1 -0.69727,-0.333 l -6.93945,-10.334 v 10.06056 a 0.60829,0.60829 0 0 1 -0.60645,0.60645 h -3 a 0.60829,0.60829 0 0 1 -0.60645,-0.60645 V 0.95020905 a 0.583,0.583 0 0 1 0.60645,-0.57568 h 3 a 0.583,0.583 0 0 1 0.60645,0.57568 V 10.586929 l 7.42383,-9.97020995 c 0.15234,-0.21191 0.36426,-0.24219 0.69727,-0.24219 h 3.45504 c 0.39355,0 0.5752,0.15137 0.5752,0.36328 a 0.85681,0.85681 0 0 1 -0.21191,0.48486005 l -7.75779,10.0307599 7.81836,10.96973 a 0.84656,0.84656 0 0 1 0.15137,0.36426 q 0,0.27245 -0.4541,0.27245 z"
     id="path3733"
     inkscape:connector-curvature="0"
     style="fill:#54616c" />
  <path
     class="cls-1"
     d="m 140.91439,9.5708691 a 4.78547,4.78547 0 1 1 4.81152,-4.77637 4.76895,4.76895 0 0 1 -4.81152,4.77637 z m 0,-8.85791005 a 4.06351,4.06351 0 1 0 4.08105,4.08154005 4.06186,4.06186 0 0 0 -4.08105,-4.08154005 z m 2.03125,7.04000005 h -0.499 a 0.26522,0.26522 0 0 1 -0.21387,-0.14258 l -1.44336,-2.28125 -0.21387,-0.05371 h -0.71289 v 2.21 a 0.27137,0.27137 0 0 1 -0.25,0.26758 h -0.44531 a 0.25559,0.25559 0 0 1 -0.23145,-0.26758 v -5.38183 c 0,-0.23193 0.10645,-0.37451 0.32129,-0.39258 0.2666,-0.03516 0.96191,-0.05322 1.35352,-0.05322 1.47949,0 2.335,0.4458 2.335,1.80029 v 0.07129 a 1.50069,1.50069 0 0 1 -1.19434,1.60352 l 1.373,2.228 a 0.43081,0.43081 0 0 1 0.0352,0.16064 c -1e-5,0.12453 -0.0527,0.23147 -0.21388,0.23147 z m -0.89062,-4.29492 c 0,-0.71289 -0.41016,-0.96289 -1.39062,-0.96289 h -0.81934 v 1.99609 c 0.19531,0 0.67676,0.01807 0.81934,0.01807 0.998,0 1.39063,-0.26709 1.39063,-0.98 z"
     id="path3735"
     inkscape:connector-curvature="0"
     style="fill:#54616c" />
</svg>
